<svg xmlns="http://www.w3.org/2000/svg" width="8.98" height="11.795" viewBox="0 0 8.98 11.795">
  <path id="Path_55748" data-name="Path 55748" d="M-4.286-13.943h.075q.655,0,1.182.967l1.7,2.363a.669.669,0,0,0,.5.215h.043q.483,0,.849-.709l1.848-2.546a1.089,1.089,0,0,1,.73-.29h.021a1.01,1.01,0,0,1,1,.806.889.889,0,0,1,.021.193v.118a2.646,2.646,0,0,1-.73,1.3Q.881-8.615.677-8.271l-.021.14v.172A4.519,4.519,0,0,0,1.5-6.617q1.8,2.535,2.105,3.008a1.051,1.051,0,0,1,.075.354v.118a1,1,0,0,1-.806.967,1.446,1.446,0,0,1-.236.021,1.346,1.346,0,0,1-1.16-.87L-.312-5.532a.856.856,0,0,0-.4-.161H-.881q-.43,0-1.063,1.085-1.354,1.9-1.6,2.2a1.087,1.087,0,0,1-.666.258h-.075a1.011,1.011,0,0,1-.988-.827A1.566,1.566,0,0,1-5.3-3.233,3.341,3.341,0,0,1-4.4-4.77L-2.3-7.777a2.187,2.187,0,0,0,.054-.279A4.286,4.286,0,0,0-3.19-9.571Q-5.049-12.2-5.231-12.5a1.383,1.383,0,0,1-.064-.419,1.057,1.057,0,0,1,.806-1A1.165,1.165,0,0,1-4.286-13.943Z" transform="translate(5.296 13.943)" fill="#8a8a8a"/>
</svg>
