<svg xmlns="http://www.w3.org/2000/svg" width="19.65" height="19.65" viewBox="0 0 19.65 19.65">
  <g id="_9663" data-name="9663" transform="translate(0 0)">
    <g id="Group_1539" data-name="Group 1539" transform="translate(0 0)">
      <path id="Path_55235" data-name="Path 55235" d="M51.149,301.264a9.716,9.716,0,0,1-14.749-2.5l.638-2.941,2.828-.525a5.218,5.218,0,0,0,4.963,3.673,5.107,5.107,0,0,0,3.04-.99l2.717.414Z" transform="translate(-35.003 -283.966)" fill="#59c36a"/>
      <path id="Path_55236" data-name="Path 55236" d="M262.321,368.482l-.564-2.867-2.717-.414a5.107,5.107,0,0,1-3.04.99v4.644A9.81,9.81,0,0,0,262.321,368.482Z" transform="translate(-246.175 -351.184)" fill="#00a66c"/>
      <g id="Connected_Home_1_" transform="translate(0 4.851)">
        <g id="Group_1538" data-name="Group 1538">
          <g id="Group_1537" data-name="Group 1537">
            <g id="Group_1536" data-name="Group 1536">
              <path id="Path_55237" data-name="Path 55237" d="M4.644,131.374a5.366,5.366,0,0,0,.219,1.508L1.4,136.348a9.553,9.553,0,0,1,0-9.948l2.781.479.684,2.987A5.365,5.365,0,0,0,4.644,131.374Z" transform="translate(0 -126.4)" fill="#ffda2d"/>
            </g>
          </g>
        </g>
      </g>
      <path id="Path_55238" data-name="Path 55238" d="M251.4,198.3a9.81,9.81,0,0,1-3.5,7.473l-3.281-3.281a5.1,5.1,0,0,0,1.6-1.888h-4.64a.57.57,0,0,1-.576-.576v-3.454a.57.57,0,0,1,.576-.576h9.088a.569.569,0,0,1,.564.472A9.763,9.763,0,0,1,251.4,198.3Z" transform="translate(-231.751 -188.478)" fill="#4086f4"/>
      <path id="Path_55239" data-name="Path 55239" d="M260.64,200.606a5.1,5.1,0,0,1-1.6,1.888l3.281,3.281a9.731,9.731,0,0,0,3.331-9.3.569.569,0,0,0-.564-.472H256v4.606Z" transform="translate(-246.175 -188.478)" fill="#4175df"/>
      <path id="Path_55240" data-name="Path 55240" d="M51.311,2.744a.581.581,0,0,1-.161.426L48.685,5.623a.564.564,0,0,1-.748.058,5.15,5.15,0,0,0-3.109-1.036,5.218,5.218,0,0,0-4.963,3.673L36.4,4.851A9.71,9.71,0,0,1,51.1,2.318a.605.605,0,0,1,.207.426Z" transform="translate(-35.003 0)" fill="#ff641a"/>
      <path id="Path_55241" data-name="Path 55241" d="M259.109,5.68a.564.564,0,0,0,.748-.058l2.464-2.452a.58.58,0,0,0,.161-.426.605.605,0,0,0-.207-.426A9.8,9.8,0,0,0,256,0V4.644A5.15,5.15,0,0,1,259.109,5.68Z" transform="translate(-246.175 0)" fill="#f03800"/>
    </g>
  </g>
</svg>
