<svg xmlns="http://www.w3.org/2000/svg" version="1.1" xmlns:xlink="http://www.w3.org/1999/xlink" width="512" height="512" x="0" y="0" viewBox="0 0 24 24" style="enable-background:new 0 0 512 512" xml:space="preserve"><g><path fill="#ECEFF1" d="M17.25 15.5c-4.82 0-8.75-3.93-8.75-8.75 0-2.71 1.24-5.14 3.19-6.75H2.75C1.23 0 0 1.23 0 2.75v18.5C0 22.77 1.23 24 2.75 24h14.5c1.52 0 2.75-1.23 2.75-2.75v-6.19c-.86.28-1.79.44-2.75.44z" opacity="1" data-original="#eceff1"></path><path fill="#CDD0D2" d="M10 0H2.75C1.23 0 0 1.23 0 2.75v18.5C0 22.77 1.23 24 2.75 24H10V11.64c-.946-1.398-1.5-3.081-1.5-4.89s.553-3.493 1.5-4.892z" opacity="1" data-original="#cdd0d2"></path><g fill="#607D8B"><path d="M11.25 22h-2.5a.75.75 0 0 1-.75-.75v-4.5a.75.75 0 0 1 1.5 0v3.75h1.75a.75.75 0 0 1 0 1.5zM6.251 22a.747.747 0 0 1-.656-.386l-2.5-4.5a.75.75 0 1 1 1.311-.728l2.5 4.5A.75.75 0 0 1 6.251 22z" fill="#607D8B" opacity="1" data-original="#607d8b"></path><path d="M3.749 22a.75.75 0 0 1-.654-1.114l2.5-4.5a.75.75 0 1 1 1.311.728l-2.5 4.5a.75.75 0 0 1-.657.386zM15.208 22H13.75a.75.75 0 0 1 0-1.5h1.458c.158 0 .292-.172.292-.375s-.134-.375-.292-.375h-.416c-.988 0-1.792-.841-1.792-1.875S13.804 16 14.792 16h1.458a.75.75 0 0 1 0 1.5h-1.458c-.158 0-.292.172-.292.375s.134.375.292.375h.416c.988 0 1.792.841 1.792 1.875S16.196 22 15.208 22z" fill="#607D8B" opacity="1" data-original="#607d8b"></path></g><path fill="#4CAF50" d="M17.25 13.5c-3.722 0-6.75-3.028-6.75-6.75S13.528 0 17.25 0 24 3.028 24 6.75s-3.028 6.75-6.75 6.75z" opacity="1" data-original="#4caf50"></path><path fill="#FFFFFF" d="M16.25 9.75a1 1 0 0 1-.707-.293l-2-2a.999.999 0 1 1 1.414-1.414l1.244 1.244 2.796-3.196a1.001 1.001 0 0 1 1.505 1.317l-3.5 4a.995.995 0 0 1-.719.341z" opacity="1" data-original="#ffffff"></path><path fill="#429846" d="M17.25 0c-3.722 0-6.75 3.028-6.75 6.75s3.028 6.75 6.75 6.75V9.126l-.248.283a.998.998 0 0 1-.719.34l-.033.001a1 1 0 0 1-.707-.293l-2-2a.999.999 0 1 1 1.414-1.414l1.244 1.244 1.049-1.199z" opacity="1" data-original="#429846"></path><path fill="#DEDEDE" d="M14.25 5.75a.999.999 0 0 0-.707 1.707l2 2a1 1 0 0 0 .707.293l.033-.001a.999.999 0 0 0 .719-.341l.248-.283V6.088l-1.049 1.199-1.244-1.244a.997.997 0 0 0-.707-.293z" opacity="1" data-original="#dedede"></path><path fill="#546D79" d="M9.5 19H8v2.25c0 .414.336.75.75.75h2.5a.75.75 0 0 0 0-1.5H9.5zM5.858 19 5 20.544l.595 1.071a.748.748 0 0 0 1.019.291.75.75 0 0 0 .291-1.02z" opacity="1" data-original="#546d79"></path><path fill="#546D79" d="M5.858 19H4.142l-1.048 1.886a.75.75 0 1 0 1.311.728L5 20.544zM16.641 19H13.36c.327.455.848.75 1.433.75h.416c.158 0 .292.172.292.375s-.135.375-.293.375H13.75a.75.75 0 0 0 0 1.5h1.458c.988 0 1.792-.841 1.792-1.875 0-.422-.134-.811-.359-1.125z" opacity="1" data-original="#546d79"></path></g></svg>