<svg xmlns="http://www.w3.org/2000/svg" version="1.1" xmlns:xlink="http://www.w3.org/1999/xlink" width="512" height="512" x="0" y="0" viewBox="0 0 48 48" style="enable-background:new 0 0 512 512" xml:space="preserve" class=""><g><path d="M44 37c.55 0 1-.45 1-1V12c0-.55-.45-1-1-1h-2.15l2.77-2.22c.43-.34.5-.97.16-1.41-.35-.43-.97-.5-1.41-.16L38.65 11H4c-.55 0-1 .45-1 1v24c0 .55.45 1 1 1h2.15l-2.77 2.22c-.43.34-.5.97-.16 1.41.2.24.49.37.78.37.22 0 .44-.07.62-.22L9.35 37zm-4.65-24H43v22H11.85L19 29.28V30a.999.999 0 0 0 1 1c.15 0 .31-.04.45-.11l12-6c.34-.16.55-.51.55-.89s-.21-.73-.55-.89l-3.53-1.76zM27.2 22.72 29.76 24 21 28.38v-.7zm-6.2 2.4v-5.5l4.23 2.12zM5 35V13h31.15l-9.2 7.36-6.5-3.25c-.31-.15-.68-.14-.97.04-.3.18-.48.5-.48.85v8.72L8.65 35z" fill="#E43939" opacity="1" data-original="#000000" class=""></path></g></svg>