<svg xmlns="http://www.w3.org/2000/svg" version="1.1" xmlns:xlink="http://www.w3.org/1999/xlink" width="512" height="512" x="0" y="0" viewBox="0 0 512 512" style="enable-background:new 0 0 512 512" xml:space="preserve" class=""><g><path d="m338.95 243.28-120-75A15.002 15.002 0 0 0 195.999 181v150a15 15 0 0 0 22.95 12.72l120-75a15 15 0 0 0 .001-25.44zM226 303.936v-95.873L302.698 256z" fill="#E43939" opacity="1" data-original="#000000" class=""></path><path d="M437 61H75C33.645 61 0 94.645 0 136v240c0 41.355 33.645 75 75 75h362c41.355 0 75-33.645 75-75V136c0-41.355-33.645-75-75-75zm45 315c0 24.813-20.187 45-45 45H75c-24.813 0-45-20.187-45-45V136c0-24.813 20.187-45 45-45h362c24.813 0 45 20.187 45 45z" fill="#E43939" opacity="1" data-original="#000000" class=""></path></g></svg>