<svg id="vuesax_broken_lock" data-name="vuesax/broken/lock" xmlns="http://www.w3.org/2000/svg" width="24" height="24" viewBox="0 0 24 24">
  <g id="lock">
    <path id="Vector" d="M0,8V6C0,2.69,1,0,6,0s6,2.69,6,6V8" transform="translate(6 2)" fill="none" stroke="#008dd2" stroke-linecap="round" stroke-linejoin="round" stroke-width="1.5"/>
    <path id="Vector-2" data-name="Vector" d="M0,0H24V24H0Z" fill="none" opacity="0"/>
    <path id="Vector-3" data-name="Vector" d="M20,7V5c0-4-1-5-5-5H5C1,0,0,1,0,5V7c0,4,1,5,5,5H15a6.372,6.372,0,0,0,3.71-.75" transform="translate(2 10)" fill="none" stroke="#008dd2" stroke-linecap="round" stroke-linejoin="round" stroke-width="1.5"/>
    <path id="Vector-4" data-name="Vector" d="M.495.5H.5" transform="translate(15.502 15.5)" fill="none" stroke="#008dd2" stroke-linecap="round" stroke-linejoin="round" stroke-width="2"/>
    <path id="Vector-5" data-name="Vector" d="M.495.5H.5" transform="translate(11.501 15.5)" fill="none" stroke="#008dd2" stroke-linecap="round" stroke-linejoin="round" stroke-width="2"/>
    <path id="Vector-6" data-name="Vector" d="M.495.5H.5" transform="translate(7.5 15.5)" fill="none" stroke="#008dd2" stroke-linecap="round" stroke-linejoin="round" stroke-width="2"/>
  </g>
</svg>
