<svg id="notification_broken_notification" data-name="notification/broken/notification" xmlns="http://www.w3.org/2000/svg" width="24" height="24" viewBox="0 0 24 24">
  <g id="vuesax_broken_notification" data-name="vuesax/broken/notification">
    <g id="notification">
      <path id="Vector" d="M14.046,8.89V6a6,6,0,0,0-12,0V8.89a4.778,4.778,0,0,1-.57,2.06L.326,12.86a1.919,1.919,0,0,0,1.08,2.93,20.921,20.921,0,0,0,13.27,0,2,2,0,0,0,1.08-2.93" transform="translate(3.974 2.91)" fill="none" stroke="#008dd2" stroke-linecap="round" stroke-width="1.5"/>
      <path id="Vector-2" data-name="Vector" d="M3.7,1.26a6.054,6.054,0,0,0-.96-.2A6.754,6.754,0,0,0,0,1.26a1.988,1.988,0,0,1,3.7,0Z" transform="translate(10.17 1.94)" fill="none" stroke="#008dd2" stroke-linecap="round" stroke-linejoin="round" stroke-width="1.5"/>
      <path id="Vector-3" data-name="Vector" d="M6,0A3.009,3.009,0,0,1,3,3,3.011,3.011,0,0,1,.88,2.12,3.011,3.011,0,0,1,0,0" transform="translate(9.02 19.06)" fill="none" stroke="#008dd2" stroke-width="1.5"/>
      <path id="Vector-4" data-name="Vector" d="M0,0H24V24H0Z" fill="none" opacity="0"/>
    </g>
  </g>
</svg>
