<svg id="add-circle_bulk" data-name="add-circle/bulk" xmlns="http://www.w3.org/2000/svg" width="24" height="24" viewBox="0 0 24 24">
  <g id="vuesax_bulk_add-circle" data-name="vuesax/bulk/add-circle">
    <g id="add-circle">
      <path id="Vector" d="M20,10A10,10,0,1,1,10,0,10,10,0,0,1,20,10Z" transform="translate(2 2)" fill="#fff" opacity="0.4"/>
      <path id="Vector-2" data-name="Vector" d="M8.75,4H5.5V.75A.75.75,0,0,0,4,.75V4H.75a.75.75,0,0,0,0,1.5H4V8.75a.75.75,0,0,0,1.5,0V5.5H8.75a.75.75,0,0,0,0-1.5Z" transform="translate(7.25 7.25)" fill="#fff"/>
      <path id="Vector-3" data-name="Vector" d="M0,0H24V24H0Z" fill="none" opacity="0"/>
    </g>
  </g>
</svg>
