<svg id="calendar-2_linear" data-name="calendar-2/linear" xmlns="http://www.w3.org/2000/svg" width="24" height="24" viewBox="0 0 24 24">
  <g id="vuesax_linear_calendar-2" data-name="vuesax/linear/calendar-2">
    <g id="calendar-2">
      <path id="Vector" d="M0,0V3" transform="translate(8 2)" fill="none" stroke="#008dd2" stroke-linecap="round" stroke-linejoin="round" stroke-width="1.5"/>
      <path id="Vector-2" data-name="Vector" d="M0,0V3" transform="translate(16 2)" fill="none" stroke="#008dd2" stroke-linecap="round" stroke-linejoin="round" stroke-width="1.5"/>
      <path id="Vector-3" data-name="Vector" d="M0,0H17" transform="translate(3.5 9.09)" fill="none" stroke="#008dd2" stroke-linecap="round" stroke-linejoin="round" stroke-width="1.5"/>
      <path id="Vector-4" data-name="Vector" d="M18,5v8.5c0,3-1.5,5-5,5H5c-3.5,0-5-2-5-5V5C0,2,1.5,0,5,0h8C16.5,0,18,2,18,5Z" transform="translate(3 3.5)" fill="none" stroke="#008dd2" stroke-linecap="round" stroke-linejoin="round" stroke-width="1.5"/>
      <path id="Vector-5" data-name="Vector" d="M0,0H24V24H0Z" fill="none" opacity="0"/>
      <path id="Vector-6" data-name="Vector" d="M.495.5H.5" transform="translate(11.501 13.2)" fill="none" stroke="#008dd2" stroke-linecap="round" stroke-linejoin="round" stroke-width="2"/>
      <path id="Vector-7" data-name="Vector" d="M.495.5H.5" transform="translate(7.8 13.2)" fill="none" stroke="#008dd2" stroke-linecap="round" stroke-linejoin="round" stroke-width="2"/>
      <path id="Vector-8" data-name="Vector" d="M.495.5H.5" transform="translate(7.8 16.2)" fill="none" stroke="#008dd2" stroke-linecap="round" stroke-linejoin="round" stroke-width="2"/>
    </g>
  </g>
</svg>
