<svg id="candle-2_bulk" data-name="candle-2/bulk" xmlns="http://www.w3.org/2000/svg" width="24" height="24" viewBox="0 0 24 24">
  <g id="vuesax_bulk_candle-2" data-name="vuesax/bulk/candle-2">
    <g id="candle-2">
      <path id="Vector" d="M0,0H24V24H0Z" fill="none" opacity="0"/>
      <g id="Group" transform="translate(1.25 14.5)">
        <path id="Vector-2" data-name="Vector" d="M21.5,3a.755.755,0,0,1-.75.75h-7V4a1.79,1.79,0,0,1-2,2h-6a1.79,1.79,0,0,1-2-2V3.75h-3a.75.75,0,0,1,0-1.5h3V2a1.79,1.79,0,0,1,2-2h6a1.79,1.79,0,0,1,2,2v.25h7A.755.755,0,0,1,21.5,3Z" fill="#fff"/>
      </g>
      <path id="Vector-3" data-name="Vector" d="M21.5,3a.755.755,0,0,1-.75.75h-3V4a1.79,1.79,0,0,1-2,2h-6a1.79,1.79,0,0,1-2-2V3.75h-7a.75.75,0,0,1,0-1.5h7V2a1.79,1.79,0,0,1,2-2h6a1.79,1.79,0,0,1,2,2v.25h3A.755.755,0,0,1,21.5,3Z" transform="translate(1.25 3.5)" fill="#fff" opacity="0.4"/>
    </g>
  </g>
</svg>
