<svg id="document-copy_linear" data-name="document-copy/linear" xmlns="http://www.w3.org/2000/svg" width="17.945" height="17.945" viewBox="0 0 17.945 17.945">
  <g id="vuesax_linear_document-copy" data-name="vuesax/linear/document-copy">
    <path id="Vector" d="M11.216,4.785V7.029c0,2.991-1.2,4.187-4.187,4.187H4.187C1.2,11.216,0,10.019,0,7.029V4.187C0,1.2,1.2,0,4.187,0H6.43" transform="translate(1.495 5.234)" fill="none" stroke="#008dd2" stroke-linecap="round" stroke-linejoin="round" stroke-width="1.2"/>
    <path id="Vector-2" data-name="Vector" d="M4.785,4.785H2.393C.6,4.785,0,4.187,0,2.393V0Z" transform="translate(7.926 5.234)" fill="none" stroke="#008dd2" stroke-linecap="round" stroke-linejoin="round" stroke-width="1.2"/>
    <path id="Vector-3" data-name="Vector" d="M0,0H2.991" transform="translate(8.674 1.495)" fill="none" stroke="#008dd2" stroke-linecap="round" stroke-linejoin="round" stroke-width="1.2"/>
    <path id="Vector-4" data-name="Vector" d="M0,2.243A2.24,2.24,0,0,1,2.243,0H4.2" transform="translate(5.234 1.495)" fill="none" stroke="#008dd2" stroke-linecap="round" stroke-linejoin="round" stroke-width="1.2"/>
    <path id="Vector-5" data-name="Vector" d="M2.1,0V4.628A2.1,2.1,0,0,1,0,6.729" transform="translate(14.349 5.982)" fill="none" stroke="#008dd2" stroke-linecap="round" stroke-linejoin="round" stroke-width="1.2"/>
    <path id="Vector-6" data-name="Vector" d="M4.486,4.486H2.243C.561,4.486,0,3.926,0,2.243V0Z" transform="translate(11.964 1.495)" fill="none" stroke="#008dd2" stroke-linecap="round" stroke-linejoin="round" stroke-width="1.2"/>
    <path id="Vector-7" data-name="Vector" d="M0,0H17.945V17.945H0Z" fill="none" opacity="0"/>
  </g>
</svg>
