<svg id="folder-open_bulk" data-name="folder-open/bulk" xmlns="http://www.w3.org/2000/svg" width="49.406" height="49.406" viewBox="0 0 49.406 49.406">
  <g id="vuesax_bulk_folder-open" data-name="vuesax/bulk/folder-open">
    <g id="folder-open">
      <path id="Vector" d="M38.654,3.026l-.329-.453A6.606,6.606,0,0,0,36.287.906,7.016,7.016,0,0,0,32.808,0H7.178A7.073,7.073,0,0,0,3.7.906a6.962,6.962,0,0,0-2.12,1.77A7.278,7.278,0,0,0,.035,7.884L.8,17.5c.268,2.9.618,6.485,7.143,6.485H32.067c6.526,0,6.855-3.582,7.143-6.505L39.972,7.9A6.926,6.926,0,0,0,38.654,3.026ZM24.923,14.39H15.063a1.441,1.441,0,1,1,0-2.882h9.861a1.441,1.441,0,1,1,0,2.882Z" transform="translate(4.7 21.306)" fill="#667c95"/>
      <path id="Vector-2" data-name="Vector" d="M0,19.166A7.273,7.273,0,0,1,1.441,18.1a7.016,7.016,0,0,1,3.479-.906H30.57a7.073,7.073,0,0,1,3.479.906,6.185,6.185,0,0,1,1.441,1.091V16.1c0-7.349-2.244-9.593-9.593-9.593H21c-.906,0-.926-.021-1.462-.721L17.066,2.47C15.892.947,14.966,0,12.022,0H9.593C2.244,0,0,2.244,0,9.593v9.572Z" transform="translate(6.958 4.117)" fill="#667c95" opacity="0.4"/>
      <path id="Vector-3" data-name="Vector" d="M0,0H49.406V49.406H0Z" fill="none" opacity="0"/>
    </g>
  </g>
</svg>
