<svg id="folder-open_bulk" data-name="folder-open/bulk" xmlns="http://www.w3.org/2000/svg" width="21.139" height="21.139" viewBox="0 0 21.139 21.139">
  <g id="vuesax_bulk_folder-open" data-name="vuesax/bulk/folder-open">
    <g id="folder-open">
      <path id="Vector" d="M16.538,1.295,16.4,1.1a2.826,2.826,0,0,0-.872-.713A3,3,0,0,0,14.037,0H3.071A3.026,3.026,0,0,0,1.583.388a2.979,2.979,0,0,0-.907.757A3.114,3.114,0,0,0,.015,3.373L.341,7.487C.455,8.729.605,10.261,3.4,10.261H13.72c2.792,0,2.933-1.533,3.056-2.783l.326-4.1A2.963,2.963,0,0,0,16.538,1.295ZM10.664,6.157H6.445a.617.617,0,1,1,0-1.233h4.219a.617.617,0,0,1,0,1.233Z" transform="translate(2.011 9.116)" fill="#fff"/>
      <path id="Vector-2" data-name="Vector" d="M0,8.2a3.112,3.112,0,0,1,.617-.458,3,3,0,0,1,1.489-.388H13.08a3.026,3.026,0,0,1,1.489.388,2.646,2.646,0,0,1,.617.467V6.888c0-3.144-.96-4.1-4.1-4.1h-2.1c-.388,0-.4-.009-.625-.308L7.3,1.057A2.241,2.241,0,0,0,5.144,0H4.1C.96,0,0,.96,0,4.1V8.2Z" transform="translate(2.977 1.762)" fill="#fff" opacity="0.4"/>
      <path id="Vector-3" data-name="Vector" d="M0,0H21.139V21.139H0Z" fill="none" opacity="0"/>
    </g>
  </g>
</svg>
