<svg xmlns="http://www.w3.org/2000/svg" width="100.957" height="100.957" viewBox="0 0 100.957 100.957">
  <g id="Group_11626" data-name="Group 11626" transform="translate(-1238.494 -1063)">
    <g id="Path_56056" data-name="Path 56056" transform="translate(1238.494 1063)" fill="none">
      <path d="M50.479,0A50.479,50.479,0,1,1,0,50.479,50.479,50.479,0,0,1,50.479,0Z" stroke="none"/>
      <path d="M 50.478515625 2.999992370605469 C 44.0676383972168 2.999992370605469 37.85011672973633 4.254898071289062 31.9986572265625 6.729850769042969 C 26.34529876708984 9.121025085449219 21.2674560546875 12.54482269287109 16.9061279296875 16.9061279296875 C 12.54482269287109 21.2674560546875 9.121025085449219 26.34529876708984 6.729850769042969 31.9986572265625 C 4.254898071289062 37.85011672973633 2.999992370605469 44.0676383972168 2.999992370605469 50.478515625 C 2.999992370605469 56.8893928527832 4.254898071289062 63.10691452026367 6.729850769042969 68.9583740234375 C 9.121025085449219 74.61171722412109 12.54482269287109 79.6895751953125 16.9061279296875 84.05088806152344 C 21.2674560546875 88.41220855712891 26.34529876708984 91.83599090576172 31.9986572265625 94.22716522216797 C 37.85011672973633 96.70211791992188 44.0676383972168 97.95702362060547 50.478515625 97.95702362060547 C 56.8893928527832 97.95702362060547 63.10691452026367 96.70211791992188 68.9583740234375 94.22716522216797 C 74.61171722412109 91.83599090576172 79.6895751953125 88.41220855712891 84.05088806152344 84.05088806152344 C 88.41220855712891 79.6895751953125 91.83599090576172 74.61171722412109 94.22716522216797 68.9583740234375 C 96.70211791992188 63.10691452026367 97.95702362060547 56.8893928527832 97.95702362060547 50.478515625 C 97.95702362060547 44.0676383972168 96.70211791992188 37.85011672973633 94.22716522216797 31.9986572265625 C 91.83599090576172 26.34529876708984 88.41220855712891 21.2674560546875 84.05088806152344 16.9061279296875 C 79.6895751953125 12.54482269287109 74.61171722412109 9.121025085449219 68.9583740234375 6.729850769042969 C 63.10691452026367 4.254898071289062 56.8893928527832 2.999992370605469 50.478515625 2.999992370605469 M 50.478515625 -7.62939453125e-06 C 78.35702514648438 -7.62939453125e-06 100.9570236206055 22.60000610351562 100.9570236206055 50.478515625 C 100.9570236206055 78.35702514648438 78.35702514648438 100.9570236206055 50.478515625 100.9570236206055 C 22.60000610351562 100.9570236206055 -7.62939453125e-06 78.35702514648438 -7.62939453125e-06 50.478515625 C -7.62939453125e-06 22.60000610351562 22.60000610351562 -7.62939453125e-06 50.478515625 -7.62939453125e-06 Z" stroke="none" fill="#8d8d8d"/>
    </g>
    <g id="Group_1829" data-name="Group 1829" transform="translate(1275.466 1089.664)">
      <path id="Vector" d="M13.508,33.631a4.235,4.235,0,0,0,4.2-4.2V28.25c0-6.5-4.764-9.7-6.558-10.93-2.074-1.4-2.746-2.354-2.746-3.812a5.1,5.1,0,1,1,10.2,0,4.2,4.2,0,1,0,8.408,0A13.508,13.508,0,1,0,0,13.509c0,6.39,4.708,9.585,6.446,10.762C8.632,25.728,9.3,26.681,9.3,28.25v1.177A4.2,4.2,0,0,0,13.508,33.631Z" transform="translate(0)" fill="#8d8d8d"/>
      <path id="Vector-2" data-name="Vector" d="M4.2,8.408A4.2,4.2,0,1,0,0,4.2,4.2,4.2,0,0,0,4.2,8.408Z" transform="translate(9.306 39.18)" fill="#8d8d8d"/>
    </g>
  </g>
</svg>
