<svg id="trash_bulk" data-name="trash/bulk" xmlns="http://www.w3.org/2000/svg" width="24" height="24" viewBox="0 0 24 24">
  <g id="vuesax_bulk_trash" data-name="vuesax/bulk/trash">
    <g id="trash">
      <path id="Vector" d="M18.824,3.98c-1.61-.16-3.22-.28-4.84-.37V3.6l-.22-1.3c-.15-.92-.37-2.3-2.71-2.3H8.434C6.1,0,5.884,1.32,5.724,2.29l-.21,1.28c-.93.06-1.86.12-2.79.21l-2.04.2a.748.748,0,1,0,.14,1.49l2.04-.2a79.729,79.729,0,0,1,15.82.21h.08a.757.757,0,0,0,.75-.68A.766.766,0,0,0,18.824,3.98Z" transform="translate(2.246 1.25)" fill="#ff1d1d"/>
      <path id="Vector-2" data-name="Vector" d="M14.8.39a1.264,1.264,0,0,0-.91-.39H1.252a1.248,1.248,0,0,0-.91.39A1.288,1.288,0,0,0,0,1.33l.62,10.26c.11,1.52.25,3.42,3.74,3.42h6.42c3.49,0,3.63-1.89,3.74-3.42l.62-10.25A1.3,1.3,0,0,0,14.8.39Z" transform="translate(4.428 7.75)" fill="#ff1d1d" opacity="0.399"/>
      <path id="Vector_Stroke_" data-name="Vector (Stroke)" d="M0,.75A.75.75,0,0,1,.75,0H4.08a.75.75,0,0,1,0,1.5H.75A.75.75,0,0,1,0,.75Z" transform="translate(9.58 16.25)" fill="#ff1d1d"/>
      <path id="Vector_Stroke_2" data-name="Vector (Stroke)" d="M0,.75A.75.75,0,0,1,.75,0h5a.75.75,0,0,1,0,1.5h-5A.75.75,0,0,1,0,.75Z" transform="translate(8.75 12.25)" fill="#ff1d1d"/>
      <path id="Vector-3" data-name="Vector" d="M0,0H24V24H0Z" fill="none" opacity="0"/>
    </g>
  </g>
</svg>
