<svg id="instagram_1_" data-name="instagram (1)" xmlns="http://www.w3.org/2000/svg" width="16.288" height="16.288" viewBox="0 0 16.288 16.288">
  <path id="Path_53309" data-name="Path 53309" d="M11.878,0H4.408A4.414,4.414,0,0,0,0,4.409v7.47a4.414,4.414,0,0,0,4.409,4.409h7.47a4.414,4.414,0,0,0,4.409-4.409V4.409A4.414,4.414,0,0,0,11.878,0ZM8.143,12.6A4.454,4.454,0,1,1,12.6,8.144,4.459,4.459,0,0,1,8.143,12.6ZM12.7,4.741A1.316,1.316,0,1,1,14.02,3.425,1.317,1.317,0,0,1,12.7,4.741Zm0,0" transform="translate(0.001 0)" fill="#fff"/>
  <path id="Path_53310" data-name="Path 53310" d="M149.519,146.02a3.5,3.5,0,1,0,3.5,3.5A3.5,3.5,0,0,0,149.519,146.02Zm0,0" transform="translate(-141.375 -141.375)" fill="#fff"/>
  <path id="Path_53311" data-name="Path 53311" d="M388.354,96.3a.361.361,0,1,0,.361.361A.362.362,0,0,0,388.354,96.3Zm0,0" transform="translate(-375.649 -93.237)" fill="#fff"/>
</svg>
