<svg xmlns="http://www.w3.org/2000/svg" width="15.128" height="14.037" viewBox="0 0 15.128 14.037">
  <path id="Path_55232" data-name="Path 55232" d="M-6.985-12.713a1.4,1.4,0,0,0,1.455-1.418A1.353,1.353,0,0,0-6.985-15.44,1.384,1.384,0,0,0-8.44-14.076,1.384,1.384,0,0,0-6.985-12.713ZM-8.131-1.4h2.273v-9.709H-8.131ZM2.633-11.222A4.222,4.222,0,0,0-.713-9.858v-1.255H-2.876V-1.4H-.6V-6.313C-.6-8.258.487-9.24,2.106-9.24c1.455,0,2.309.836,2.309,2.564V-1.4H6.687V-6.967C6.687-9.894,4.96-11.222,2.633-11.222Z" transform="translate(8.44 15.44)" fill="#fff"/>
</svg>
