<svg id="twitter" xmlns="http://www.w3.org/2000/svg" width="16.273" height="13.222" viewBox="0 0 16.273 13.222">
  <g id="Group_1218" data-name="Group 1218" transform="translate(0 0)">
    <path id="Path_53047" data-name="Path 53047" d="M16.273,49.565a6.956,6.956,0,0,1-1.922.527,3.317,3.317,0,0,0,1.468-1.844,6.667,6.667,0,0,1-2.116.808,3.336,3.336,0,0,0-5.771,2.281,3.435,3.435,0,0,0,.077.761,9.443,9.443,0,0,1-6.876-3.49,3.337,3.337,0,0,0,1.025,4.459,3.3,3.3,0,0,1-1.507-.411v.037a3.351,3.351,0,0,0,2.673,3.278,3.33,3.33,0,0,1-.875.11,2.95,2.95,0,0,1-.632-.057,3.368,3.368,0,0,0,3.117,2.324A6.7,6.7,0,0,1,.8,59.771a6.25,6.25,0,0,1-.8-.046,9.392,9.392,0,0,0,5.118,1.5,9.43,9.43,0,0,0,9.5-9.493c0-.147-.005-.29-.012-.431A6.655,6.655,0,0,0,16.273,49.565Z" transform="translate(0 -48)" fill="#fff"/>
  </g>
</svg>
