<svg xmlns="http://www.w3.org/2000/svg" width="19.308" height="19.309" viewBox="0 0 19.308 19.309">
  <g id="_708" data-name="708" transform="translate(0 0)">
    <path id="Path_55746" data-name="Path 55746" d="M15.253,12.752l-.007.06c-1.769-.882-1.954-1-2.183-.656-.158.237-.62.776-.759.935s-.281.169-.52.06a6.529,6.529,0,0,1-1.933-1.195,7.3,7.3,0,0,1-1.335-1.665c-.236-.407.257-.465.706-1.315a.442.442,0,0,0-.02-.422c-.06-.121-.541-1.3-.742-1.775s-.392-.41-.541-.41a1.2,1.2,0,0,0-1.1.277c-1.3,1.427-.971,2.9.14,4.465,2.183,2.858,3.347,3.384,5.474,4.114a3.328,3.328,0,0,0,1.512.1,2.476,2.476,0,0,0,1.622-1.147,1.991,1.991,0,0,0,.145-1.146C15.652,12.921,15.494,12.861,15.253,12.752Z" transform="translate(-1.168 -1.242)" fill="#fff"/>
    <path id="Path_55747" data-name="Path 55747" d="M16.509,2.775A9.657,9.657,0,0,0,.081,9.568a9.522,9.522,0,0,0,1.283,4.783L0,19.308l5.1-1.329A9.63,9.63,0,0,0,19.308,9.573,9.489,9.489,0,0,0,16.5,2.806ZM17.7,9.546A8.01,8.01,0,0,1,5.624,16.388l-.29-.172L2.317,17l.809-2.932-.192-.3A7.979,7.979,0,0,1,15.361,3.923,7.875,7.875,0,0,1,17.7,9.546Z" transform="translate(0 0)" fill="#fff"/>
  </g>
</svg>
