<svg id="eye_lock_linear" data-name="eye/lock/linear" xmlns="http://www.w3.org/2000/svg" width="25.441" height="25.441" viewBox="0 0 17.441 17.441">
  <g id="vuesax_linear_lock" data-name="vuesax/linear/lock">
    <g id="lock">
      <path id="Vector" d="M0,5.814V4.36C0,1.955.727,0,4.36,0s4.36,1.955,4.36,4.36V5.814" transform="translate(4.36 1.453)" fill="none" stroke="#363443" stroke-linecap="round" stroke-linejoin="round" stroke-width="1"/>
      <path id="Vector-2" data-name="Vector" d="M3.634,1.817A1.817,1.817,0,1,1,1.817,0,1.817,1.817,0,0,1,3.634,1.817Z" transform="translate(6.904 9.811)" fill="none" stroke="#363443" stroke-linecap="round" stroke-linejoin="round" stroke-width="1"/>
      <path id="Vector-3" data-name="Vector" d="M10.9,8.721H3.634C.727,8.721,0,7.994,0,5.087V3.634C0,.727.727,0,3.634,0H10.9c2.907,0,3.634.727,3.634,3.634V5.087C14.534,7.994,13.808,8.721,10.9,8.721Z" transform="translate(1.453 7.267)" fill="none" stroke="#363443" stroke-linecap="round" stroke-linejoin="round" stroke-width="1"/>
      <path id="Vector-4" data-name="Vector" d="M0,0H17.441V17.441H0Z" transform="translate(17.441 17.441) rotate(180)" fill="none" opacity="0"/>
    </g>
  </g>
</svg>
