<svg id="Layer_142" data-name="Layer 142" xmlns="http://www.w3.org/2000/svg" width="69.091" height="75.987" viewBox="0 0 69.091 75.987">
  <path id="Path_55936" data-name="Path 55936" d="M23.266,31.83h-5.6a2.084,2.084,0,0,0-2.084,2.084V48.8a2.084,2.084,0,0,0,4.167,0V43.452h3.521a5.834,5.834,0,0,0,5.8-5.834,5.742,5.742,0,0,0-5.8-5.788Zm0,7.442H19.745V36h3.521A1.6,1.6,0,0,1,24.9,37.634a1.638,1.638,0,0,1-1.638,1.65ZM39.7,31.8H34.076a2.084,2.084,0,0,0-2.084,2.084V48.819A2.084,2.084,0,0,0,34.076,50.9H39.7a5.834,5.834,0,0,0,5.834-5.834V37.618A5.834,5.834,0,0,0,39.7,31.8Zm1.667,13.281A1.667,1.667,0,0,1,39.7,46.752H36.159V35.972H39.7a1.667,1.667,0,0,1,1.667,1.667Zm20.681-11.2a2.084,2.084,0,0,1-2.084,2.084H52.678v3.313h4.83a2.084,2.084,0,1,1,0,4.167h-4.83v5.38a2.084,2.084,0,1,1-4.167,0V33.888A2.084,2.084,0,0,1,50.594,31.8h9.355a2.084,2.084,0,0,1,2.084,2.084Zm1.225-30.5H14.253A10.047,10.047,0,0,0,4.21,13.449V69.288A10.084,10.084,0,0,0,14.253,79.372H51.715a2.171,2.171,0,0,0,1.75-.917l19.21-19.21.125-.125a1.471,1.471,0,0,0,.333-.542,1.8,1.8,0,0,0,.167-.792V13.449A10.047,10.047,0,0,0,63.258,3.385ZM49.648,65.725v9.459h-35.4a5.9,5.9,0,0,1-5.876-5.9V13.449a5.867,5.867,0,0,1,5.876-5.876H63.258a5.867,5.867,0,0,1,5.876,5.876V55.7H59.716A10.055,10.055,0,0,0,49.631,65.725Z" transform="translate(-4.21 -3.385)" fill="#da4a4a"/>
</svg>
