<svg xmlns="http://www.w3.org/2000/svg" width="46" height="46" viewBox="0 0 46 46">
  <g id="Group_1852" data-name="Group 1852" transform="translate(-357 -687)">
    <g id="video-square_broken" data-name="video-square/broken" transform="translate(369.021 699.021)">
      <g id="vuesax_broken_video-square" data-name="vuesax/broken/video-square">
        <g id="video-square">
          <path id="Vector" d="M0,10.019v1.876c0,4.575,1.83,6.4,6.4,6.4h5.49c4.575,0,6.4-1.83,6.4-6.4V6.4c0-4.575-1.83-6.4-6.4-6.4H6.4C1.83,0,0,1.83,0,6.4" transform="translate(1.83 1.83)" fill="none" stroke="#008dd2" stroke-linecap="round" stroke-linejoin="round" stroke-width="1.5"/>
          <path id="Vector-2" data-name="Vector" d="M2.745,6.246C1.235,7.115,0,6.4,0,4.663V1.955C0,.207,1.235-.5,2.745.372l1.171.677,1.171.677c1.51.869,1.51,2.3,0,3.166" transform="translate(8.326 7.67)" fill="none" stroke="#008dd2" stroke-linecap="round" stroke-linejoin="round" stroke-width="1.5"/>
          <path id="Vector-3" data-name="Vector" d="M0,0H21.959V21.959H0Z" fill="none" opacity="0"/>
        </g>
      </g>
    </g>
    <g id="Group_1814" data-name="Group 1814" transform="translate(15 96)" opacity="0.5">
      <rect id="anoushka-puri-f1YfrZ1o2r8-unsplash" width="46" height="46" rx="15" transform="translate(342 591)" fill="#008dd2" opacity="0.25"/>
    </g>
  </g>
</svg>
