<svg id="vuesax_broken_video-square" data-name="vuesax/broken/video-square" xmlns="http://www.w3.org/2000/svg" width="52.851" height="52.851" viewBox="0 0 52.851 52.851">
  <g id="video-square">
    <path id="Vector" d="M0,24.113v4.514C0,39.638,4.4,44.042,15.415,44.042H28.628c11.011,0,15.415-4.4,15.415-15.415V15.415C44.042,4.4,39.638,0,28.628,0H15.415C4.4,0,0,4.4,0,15.415" transform="translate(4.404 4.404)" fill="none" stroke="#fff" stroke-linecap="round" stroke-linejoin="round" stroke-width="2.5"/>
    <path id="Vector-2" data-name="Vector" d="M6.606,15.033C2.973,17.125,0,15.408,0,11.224V4.705C0,.5,2.973-1.2,6.606.9l2.819,1.63,2.819,1.63c3.633,2.092,3.633,5.527,0,7.619" transform="translate(20.039 18.461)" fill="none" stroke="#fff" stroke-linecap="round" stroke-linejoin="round" stroke-width="2.5"/>
    <path id="Vector-3" data-name="Vector" d="M0,0H52.851V52.851H0Z" fill="none" opacity="0"/>
  </g>
</svg>
