<svg id="tag_linear" data-name="tag/linear" xmlns="http://www.w3.org/2000/svg" width="24" height="24" viewBox="0 0 24 24">
  <g id="vuesax_linear_tag" data-name="vuesax/linear/tag">
    <g id="tag">
      <path id="Vector" d="M1.4,12.526l4.53,4.53a4.78,4.78,0,0,0,6.75,0l4.39-4.39a4.78,4.78,0,0,0,0-6.75L12.535,1.4a4.751,4.751,0,0,0-3.6-1.39l-5,.24a3.864,3.864,0,0,0-3.69,3.67l-.24,5A4.8,4.8,0,0,0,1.4,12.526Z" transform="translate(2.765 2.774)" fill="none" stroke="#008DD2" stroke-linecap="round" stroke-linejoin="round" stroke-width="1.5"/>
      <path id="Vector-2" data-name="Vector" d="M5,2.5A2.5,2.5,0,1,1,2.5,0,2.5,2.5,0,0,1,5,2.5Z" transform="translate(7 7)" fill="none" stroke="#008DD2" stroke-linecap="round" stroke-width="1.5"/>
      <path id="Vector-3" data-name="Vector" d="M0,0H24V24H0Z" fill="none" opacity="0"/>
    </g>
  </g>
</svg>
