<svg xmlns="http://www.w3.org/2000/svg" width="30.583" height="30.583" viewBox="0 0 30.583 30.583">
  <g id="wallet_broken" data-name="wallet/broken" opacity="0.82">
    <g id="vuesax_broken_wallet" data-name="vuesax/broken/wallet">
      <g id="wallet">
        <path id="Vector" d="M9.812.66,9.774.749l-3.7,8.576H2.447A6.263,6.263,0,0,0,0,9.822L2.23,4.5l.051-.127.089-.2a1.1,1.1,0,0,1,.089-.217C4.129.087,6.015-.792,9.812.66Z" transform="translate(6.626 2.551)" fill="none" stroke="#fff" stroke-linecap="round" stroke-linejoin="round" stroke-width="1.5"/>
        <path id="Vector-2" data-name="Vector" d="M10.6,8.92a6.065,6.065,0,0,0-1.8-.255H0L3.7.089,3.734,0c.191.064.37.153.561.229L7.11,1.414a8.278,8.278,0,0,1,3.326,2.141,2.7,2.7,0,0,1,.319.459,1.939,1.939,0,0,1,.255.548,2.057,2.057,0,0,1,.115.331A6.025,6.025,0,0,1,10.6,8.92Z" transform="translate(12.704 3.211)" fill="none" stroke="#fff" stroke-linecap="round" stroke-linejoin="round" stroke-width="1.5"/>
        <path id="Vector-3" data-name="Vector" d="M12.424,16.158H7.454a7.032,7.032,0,0,1-.9-.064Q.471,15.693.064,9.608A7.032,7.032,0,0,1,0,8.7V6.218A6.236,6.236,0,0,1,3.772.5,6.31,6.31,0,0,1,6.218,0H18.655a6.377,6.377,0,0,1,1.8.255,6.217,6.217,0,0,1,4.409,5.951V8.691c0,.255-.013.51-.025.765-.242,4.46-2.727,6.7-7.442,6.7" transform="translate(2.867 11.876)" fill="none" stroke="#fff" stroke-linecap="round" stroke-linejoin="round" stroke-width="1.5"/>
        <path id="Vector-4" data-name="Vector" d="M6,0,3.772,5.326A6.236,6.236,0,0,0,0,11.048V7.314A7.453,7.453,0,0,1,6,0Z" transform="translate(2.854 7.047)" fill="none" stroke="#fff" stroke-linecap="round" stroke-linejoin="round" stroke-width="1.5"/>
        <path id="Vector-5" data-name="Vector" d="M4.409,6.588v3.734A6.217,6.217,0,0,0,0,4.371,6.24,6.24,0,0,0,.535.331,1.456,1.456,0,0,0,.421,0,7.42,7.42,0,0,1,4.409,6.588Z" transform="translate(23.319 7.773)" fill="none" stroke="#fff" stroke-linecap="round" stroke-linejoin="round" stroke-width="1.5"/>
        <path id="Vector-6" data-name="Vector" d="M0,0H30.583V30.583H0Z" fill="none" opacity="0"/>
      </g>
    </g>
  </g>
</svg>
